<svg width="870" height="521" viewBox="0 0 870 521" fill="none" xmlns="http://www.w3.org/2000/svg">
<path d="M306.509 155.895H233.069L113.468 344.372H193.727L211.614 313.212H328.226L346.114 344.372H426.425L306.509 155.895ZM237.633 267.365L269.632 211.604L301.263 267.365H237.633Z" fill="black"/>
<path d="M807.733 155.895V344.372H729.1V225.924L658.598 344.372H599.637L529.187 225.924V344.372H450.502V155.947H544.4L629.17 290.289L713.206 155.947L807.733 155.895Z" fill="black"/>
<path d="M870 308.334H832.336V344.372H870V308.334Z" fill="black"/>
<path d="M519.903 260.653C519.803 324.799 495.944 386.634 452.931 434.222C409.919 481.81 350.803 511.777 286.993 518.339C223.184 524.901 159.206 507.593 107.408 469.755C55.6108 431.917 19.6665 376.232 6.51349 313.449C-6.63952 250.666 3.93135 185.237 36.1857 129.79C68.44 74.343 120.091 32.8103 181.168 13.2085C242.246 -6.39322 308.42 -2.67422 366.916 23.6477C425.413 49.9695 472.085 97.0281 497.923 155.74C512.493 188.793 519.981 224.531 519.903 260.653Z" stroke="black" stroke-width="0.75" stroke-miterlimit="10"/>
</svg>
